<svg width="205" height="234" viewBox="0 0 205 234" fill="none" xmlns="http://www.w3.org/2000/svg">
<path d="M125.472 233.309C123.706 233.066 121.954 232.743 120.283 232.055C117.546 230.923 115.187 229.198 112.815 227.472C109.634 225.167 106.709 222.552 103.663 220.072C101.048 217.956 98.3518 215.961 95.1302 214.856C90.6686 213.333 86.2204 213.481 81.7723 215.044C77.068 216.702 72.6063 218.886 68.2795 221.366C64.9366 223.28 61.3511 224.48 57.4556 224.466C52.6165 224.453 48.8558 222.337 46.1195 218.374C45.0951 216.891 44.3537 215.274 43.7067 213.602C41.3748 207.55 36.9401 204.221 30.5374 203.493C28.0438 203.21 25.5636 203.547 23.0834 203.587C20.4819 203.641 17.8804 203.789 15.2924 203.911C13.6614 203.991 12.0169 204.153 10.3859 204.045C5.93773 203.749 2.09613 201.43 0.6808 197.05C-0.532337 193.302 -0.208834 189.703 2.33875 186.522C3.68668 184.824 5.54683 183.867 7.56872 183.166C12.7717 181.346 17.6108 178.826 21.9916 175.483C23.2991 174.485 24.0135 173.043 24.6874 171.614C26.4802 167.759 27.6798 163.688 28.8795 159.631C30.4161 154.415 31.6832 149.117 33.449 143.955C35.2148 138.806 37.3849 133.805 39.609 128.844C40.7143 126.364 42.1296 124.032 43.0732 121.471C43.5854 120.083 44.0302 118.681 44.165 117.198C44.2189 116.578 44.0976 116.16 43.4237 115.823C40.0808 114.165 36.6301 112.79 33.2063 111.308C19.08 101.791 30.1465 83.5404 43.8685 86.6272C45.7151 87.0585 47.5753 87.4494 49.4219 87.8672C50.379 88.0829 51.1338 87.7999 51.7134 87.0046C52.9131 85.3466 53.3983 83.4191 53.7892 81.4646C54.7597 76.612 54.8002 71.7056 54.7597 66.7856C54.7193 62.4722 54.4228 58.1858 54.0453 53.8994C53.7758 50.7318 53.4118 47.5641 53.0074 44.41C52.9535 44.0326 52.7379 43.8573 52.4952 43.6686C49.5028 41.3637 47.117 38.5465 45.3512 35.2171C43.8685 32.4134 42.7362 29.4749 42.7497 26.2399C42.7632 22.9375 45.1894 20.4573 48.4784 20.2012C50.2037 20.0664 51.7943 20.6325 53.4253 20.9695C57.6443 21.8456 61.8633 22.7757 66.0689 23.7193C66.5272 23.8136 66.7024 23.6249 66.8911 23.2744C68.6704 20.0664 70.5979 16.9392 72.9298 14.0816C78.362 7.40931 85.1825 3.08246 93.7149 1.50538C97.4217 0.790976 101.196 0.117011 105.038 0.0226563C108.556 -0.0716988 112.074 0.14397 115.592 0.386597C123.005 0.925769 129.839 3.21725 136.202 6.97797C141.189 9.91646 145.192 13.8524 147.78 19.1093C148.737 21.0369 149.425 23.0588 149.843 25.175C149.937 25.6603 150.099 25.7007 150.517 25.5524C153.24 24.555 155.962 23.5575 158.699 22.614C162.109 21.4278 165.614 20.7943 169.239 20.7943C170.048 20.7943 170.843 20.8886 171.625 21.1178C174.159 21.8861 175.467 24.1371 174.86 26.6982C174.2 29.5019 172.717 31.9282 171.261 34.3679C168.619 38.7756 165.29 42.5903 161.354 45.8927C160.788 46.3645 160.64 46.7149 160.99 47.4698C162.203 50.0309 162.769 52.7941 163.187 55.5843C164.589 64.7368 164.468 73.9701 164.387 83.1899C164.36 86.735 164.198 90.28 163.861 93.7981C163.646 96.0896 163.214 98.3541 162.742 100.619C162.702 100.834 162.675 101.063 162.662 101.279C162.54 102.452 162.54 102.452 163.74 102.452C166.314 102.452 168.889 102.061 171.477 102.169C175.346 102.344 178.85 103.409 181.465 106.469C183.757 109.151 184.606 112.319 184.296 115.783C183.622 123.358 179.106 128.251 172.892 131.931C171.086 132.996 169.132 133.778 167.366 134.937C165.95 135.854 164.616 136.851 163.524 138.172C162.688 139.183 162.432 140.153 162.972 141.474C164.926 146.273 167.42 150.775 170.156 155.142C173.054 159.766 176.208 164.227 179.201 168.783C182.678 174.094 185.469 179.742 187.005 185.956C187.625 188.504 187.922 191.092 187.288 193.68C186.331 197.656 183.689 199.867 179.78 200.702C177.448 201.201 175.103 200.959 172.744 200.824C169.253 200.608 165.802 200.905 162.486 202.118C157.836 203.816 154.56 206.93 152.363 211.432C149.587 217.12 145.907 222.229 141.256 226.569C138.399 229.238 135.231 231.395 131.443 232.554C130.203 232.931 128.909 233.08 127.642 233.295C126.901 233.309 126.187 233.309 125.472 233.309Z" fill="#FFBEBA"/>
<path d="M60.3806 68.5245C60.3267 62.7014 59.9493 56.6627 59.3292 50.6374C59.0192 47.6046 58.6553 44.5717 58.2374 41.5524C58.17 41.0536 57.9678 40.7571 57.5769 40.474C54.2206 38.1691 51.5247 35.298 49.7724 31.5912C49.058 30.0815 48.5593 28.5179 48.3301 26.86C48.2358 26.159 48.721 25.7142 49.4085 25.8625C54.9754 27.0621 60.5289 28.2483 66.0958 29.448C68.4278 29.9467 69.587 29.5154 70.854 27.48C72.4176 24.9729 73.779 22.3444 75.4909 19.9181C78.9012 15.1195 83.0528 11.197 88.5389 8.83813C91.4504 7.58456 94.5372 7.05886 97.6104 6.46577C103.11 5.41439 108.623 5.57614 114.176 5.89964C120.741 6.27706 126.847 8.17765 132.549 11.3588C136.633 13.6368 140.043 16.6561 142.321 20.8347C143.494 22.9779 144.222 25.2694 144.572 27.6822C144.909 30.0141 146.527 31.4294 148.872 31.4699C150.705 31.4968 152.39 30.8633 154.075 30.2567C157.041 29.1784 159.952 27.9518 163.012 27.1835C164.764 26.7521 166.53 26.5095 168.323 26.4151C168.902 26.3882 169.078 26.4691 168.795 27.0756C167.069 30.6746 164.953 34.0175 162.352 37.0368C160.788 38.8565 158.995 40.4606 157.189 42.0511C156.488 42.6712 155.787 43.3047 155.234 44.0865C154.358 45.3401 154.197 46.7015 154.951 48.0224C156.852 51.3114 157.432 54.9508 157.89 58.6307C158.591 64.0898 158.699 69.5893 158.753 75.0889C158.793 79.8066 158.739 84.5109 158.523 89.2152C158.362 92.7198 157.93 96.184 157.162 99.6077C156.865 100.929 156.771 102.29 157 103.625C157.485 106.482 159.426 108.059 162.419 108.113C164.886 108.154 167.352 107.897 169.819 107.817C171.356 107.776 172.865 107.844 174.335 108.342C176.869 109.178 178.594 111.55 178.661 114.219C178.769 117.724 177.354 120.608 175.062 123.129C173.27 125.124 171.073 126.593 168.687 127.766C166.004 129.087 163.403 130.529 161.138 132.511C159.224 134.196 157.634 136.096 157.027 138.671C156.623 140.41 157.095 141.987 157.701 143.577C159.683 148.672 162.338 153.404 165.223 158.027C168.188 162.758 171.41 167.314 174.456 171.978C177.624 176.804 180.185 181.953 181.519 187.628C181.789 188.773 181.923 189.919 181.883 191.092C181.789 193.761 180.549 195.014 177.893 195.324C175.952 195.553 174.038 195.216 172.124 195.162C167.002 195.014 162.068 195.769 157.472 198.155C153.105 200.433 149.843 203.762 147.632 208.21C144.68 214.141 140.946 219.506 135.797 223.793C134.49 224.884 133.048 225.814 131.497 226.515C127.629 228.281 123.882 228.012 120.269 225.787C116.508 223.469 113.125 220.679 109.755 217.848C107.14 215.664 104.539 213.44 101.587 211.729C95.0898 207.941 88.2288 207.159 81.0578 209.37C75.8414 210.974 70.9349 213.306 66.2171 216.055C63.8313 217.444 61.3376 218.495 58.5609 218.792C55.1506 219.169 52.5222 217.929 50.6081 215.085C49.9342 214.074 49.4085 212.982 48.9771 211.85C46.0117 204.059 40.4178 199.462 32.2089 198.047C29.9848 197.656 27.7337 197.804 25.4962 197.899C20.7919 198.087 16.0876 198.317 11.3834 198.492C10.0759 198.546 8.78186 198.303 7.6496 197.562C5.82989 196.362 5.42551 194.542 5.58726 192.547C5.73554 190.755 6.70604 189.461 8.40444 188.868C11.599 187.735 14.6993 186.428 17.6782 184.824C19.6327 183.772 21.5198 182.6 23.3799 181.414C26.2645 179.567 28.3134 177.046 29.7152 173.933C31.4945 169.983 32.775 165.858 34.0016 161.72C35.5383 156.558 36.7244 151.274 38.5172 146.192C40.6604 140.1 43.0867 134.115 46.0656 128.359C47.5753 125.461 48.8289 122.442 49.4354 119.193C49.7454 117.549 49.8263 115.904 49.2467 114.273C48.7884 112.966 47.9662 111.982 46.753 111.321C43.1271 109.353 39.1642 107.736 37.641 107.143C28.7986 103.732 29.8635 89.4578 41.4557 92.0458C44.1515 92.3693 46.3891 93.0298 48.3032 93.4072C51.7134 94.0677 54.3823 92.8411 56.3503 90.0509C57.9409 87.7864 58.6822 85.1849 59.2079 82.5025C60.1919 77.96 60.3537 73.3635 60.3806 68.5245Z" fill="#E74033"/>
<path d="M128.478 46.6475C128.478 57.5118 119.663 66.3408 108.798 66.3138C97.9204 66.3003 89.2128 57.4984 89.1859 46.5666C89.1589 36.4572 97.2195 27.0082 108.866 26.9812C119.77 26.9677 128.478 35.7832 128.478 46.6475Z" fill="white"/>
<path d="M110.699 60.9625C102.719 60.9221 96.3029 54.4655 96.4108 46.4858C96.5186 38.3443 103.258 32.0225 111.373 32.346C118.571 32.6425 125.23 38.6004 125.041 47.0115C124.866 54.7486 118.584 60.9491 110.699 60.9625Z" fill="#19191A"/>
<path d="M114.406 39.8675C114.433 38.25 115.686 36.956 117.223 36.9695C118.84 36.9829 120.202 38.4522 120.175 40.1641C120.161 41.7816 118.921 43.0891 117.385 43.1025C115.754 43.116 114.379 41.6333 114.406 39.8675Z" fill="white"/>
<path d="M113.61 37.9669C113.61 39.6249 112.37 40.9459 110.807 40.9459C109.189 40.9459 107.828 39.4901 107.841 37.7648C107.855 36.1338 109.068 34.8532 110.618 34.8263C112.222 34.7858 113.61 36.2416 113.61 37.9669Z" fill="white"/>
<path d="M115.241 45.1244C115.241 46.8228 114.028 48.1033 112.438 48.0898C110.834 48.0764 109.486 46.6476 109.459 44.9626C109.432 43.3182 110.712 42.0107 112.303 42.0242C113.974 42.0376 115.241 43.3721 115.241 45.1244Z" fill="white"/>
<path d="M99.9558 86.142C94.2541 85.3602 89.9811 82.8395 86.3552 79.0923C83.7807 76.4234 81.7722 73.3501 80.1008 70.0612C79.3999 68.6728 80.0873 67.0014 81.5296 66.4757C82.7158 66.0308 84.1042 66.6374 84.7646 67.9719C85.8969 70.2499 87.3122 72.3526 88.9432 74.3071C91.4504 77.313 94.4697 79.618 98.2844 80.6963C100.765 81.3972 103.272 81.3298 105.779 80.6828C107.019 80.3593 108.205 79.8876 109.432 79.5101C111.764 78.7688 113.273 80.7907 112.977 82.2464C112.788 83.2035 112.303 83.9583 111.332 84.2953C108.475 85.2793 105.59 86.2363 102.53 86.3037C101.506 86.3037 100.495 86.2498 99.9558 86.142Z" fill="#080A0B"/>
<path d="M165.802 101.764L137.604 125.555L183.73 127.779L194.54 102.883L165.802 101.764Z" fill="#B33027"/>
<path d="M203.989 60.4233L205 105.188L183.393 128.13L180.144 73.323L203.989 60.4233Z" fill="#E74033"/>
<path d="M137.604 127.779V125.555L183.73 127.779V129.222L137.604 127.779Z" fill="#B33027"/>
<path d="M205 105.188V106.59L183.73 129.222V127.779L205 105.188Z" fill="#B33027"/>
<path d="M179.349 73.1613V73.8487L182.449 127.712L183.366 127.752L180.144 73.323L179.349 73.1613Z" fill="#E74033"/>
<path d="M203.989 60.4233H203.005L179.349 73.1613L180.144 73.323L203.989 60.4233Z" fill="#B33027"/>
</svg>
