<svg width="280" height="215" viewBox="0 0 280 215" fill="none" xmlns="http://www.w3.org/2000/svg">
<path d="M264.586 41.9329C264.501 41.9448 264.404 41.9567 264.32 41.9686C264.308 41.9686 264.308 41.9686 264.296 41.9686C265.008 41.921 264.791 41.909 264.586 41.9329Z" fill="#110402"/>
<path d="M123.652 205.027C122.07 205.265 120.488 205.42 118.881 205.254C116.249 204.98 113.773 204.098 111.309 203.228C108 202.061 104.812 200.572 101.576 199.237C98.798 198.094 95.9721 197.069 92.9167 196.938C88.6899 196.759 84.9099 197.986 81.4802 200.429C77.8572 203.014 74.5723 205.968 71.4807 209.149C69.0896 211.603 66.2999 213.521 62.9546 214.475C58.7882 215.666 55.0203 214.808 51.663 212.14C50.4071 211.139 49.3564 209.959 48.3782 208.697C44.8397 204.146 40.2023 202.43 34.5022 203.407C32.2921 203.788 30.2391 204.694 28.1136 205.349C25.8915 206.04 23.6936 206.814 21.4957 207.565C20.1069 208.041 18.7422 208.577 17.3051 208.899C13.4043 209.757 9.51567 208.756 7.18489 205.385C5.19225 202.513 4.56427 199.368 5.941 196.044C6.67767 194.269 8.03025 192.995 9.58813 191.887C13.5976 189.051 17.1239 185.716 20.0465 181.772C20.916 180.593 21.1696 179.211 21.387 177.817C21.9546 174.1 21.9546 170.347 21.9667 166.607C21.9787 161.793 21.7251 156.98 21.9425 152.179C22.1599 147.366 22.7637 142.601 23.4279 137.836C23.754 135.465 24.382 133.118 24.551 130.711C24.6356 129.413 24.6718 128.102 24.4061 126.816C24.2974 126.268 24.0801 125.946 23.4279 125.839C20.1431 125.267 16.822 124.957 13.513 124.552C-1.0272 120.013 3.86382 101.774 16.4476 100.976C18.1504 100.88 19.8412 100.749 21.544 100.642C22.4256 100.582 22.9932 100.166 23.2951 99.3435C23.8989 97.6399 23.8385 95.8886 23.6815 94.1254C23.2951 89.777 22.0874 85.5954 20.8073 81.4377C19.6842 77.7922 18.3437 74.2301 16.9428 70.6799C15.9042 68.0589 14.7931 65.4618 13.6459 62.8885C13.513 62.5788 13.2715 62.4834 13.0179 62.3881C9.8659 61.173 7.10035 59.386 4.73334 57.0033C2.7407 54.9899 1.0379 52.7859 0.228767 50.034C-0.592442 47.2343 0.85675 44.5181 3.62229 43.4816C5.07148 42.9336 6.58106 43.017 8.06648 42.8978C11.9189 42.5881 15.7714 42.3379 19.6238 42.0758C20.0344 42.052 20.1431 41.8375 20.2276 41.4921C20.9522 38.3231 21.8217 35.2018 23.0898 32.1877C26.0727 25.1707 30.855 19.8097 37.7749 16.3429C40.8424 14.806 43.9098 13.305 47.1826 12.2685C50.1897 11.3154 53.2571 10.6125 56.3487 9.9573C62.846 8.56343 69.319 8.81361 75.7317 10.41C80.7556 11.6609 85.1998 13.9959 88.7503 17.8082C90.0545 19.214 91.1656 20.7508 92.0593 22.4425C92.2646 22.8238 92.4216 22.8238 92.7355 22.5974C94.8248 21.0844 96.9141 19.5476 99.0275 18.0703C101.66 16.2237 104.522 14.806 107.626 13.9125C108.314 13.71 109.027 13.5909 109.764 13.6028C112.131 13.6147 113.821 15.2111 113.954 17.5342C114.087 20.0837 113.435 22.5021 112.807 24.9324C111.648 29.3285 109.751 33.3909 107.203 37.1675C106.841 37.7036 106.805 38.0491 107.288 38.5971C108.979 40.4675 110.162 42.6715 111.225 44.935C114.739 52.3571 116.961 60.208 119.232 68.047C120.101 71.0611 120.85 74.099 121.454 77.1846C121.84 79.186 122.045 81.2113 122.215 83.2485C122.227 83.4391 122.275 83.6416 122.311 83.8323C122.504 84.8568 122.504 84.8568 123.543 84.559C125.765 83.9156 127.866 82.9388 130.125 82.3907C133.482 81.5687 136.779 81.6044 139.798 83.5463C142.443 85.2499 143.964 87.716 144.58 90.7301C145.909 97.3182 143.264 102.596 138.856 107.254C137.576 108.612 136.091 109.768 134.859 111.173C133.881 112.305 132.975 113.485 132.371 114.867C131.9 115.927 131.936 116.82 132.733 117.809C135.632 121.383 138.904 124.588 142.37 127.614C146.03 130.807 149.858 133.809 153.59 136.93C157.925 140.564 161.753 144.662 164.628 149.547C165.811 151.548 166.705 153.669 166.826 156.027C167.007 159.637 165.304 162.175 162.14 163.855C160.256 164.855 158.179 165.248 156.126 165.713C153.07 166.404 150.184 167.512 147.636 169.37C144.061 171.979 142.044 175.422 141.283 179.795C140.329 185.311 138.458 190.552 135.559 195.401C133.784 198.38 131.598 201 128.627 202.93C127.649 203.562 126.586 204.003 125.548 204.515C124.896 204.67 124.28 204.848 123.652 205.027Z" fill="#FFBEBA"/>
<path d="M26.0968 81.5091C24.5873 76.5889 22.7396 71.5495 20.6745 66.5936C19.6359 64.1037 18.561 61.6257 17.45 59.1596C17.2689 58.7546 17.0152 58.552 16.6046 58.4091C13.1387 57.2892 10.0953 55.526 7.65588 52.8217C6.66559 51.7257 5.83231 50.5105 5.22848 49.1643C4.97487 48.5924 5.27678 48.0921 5.90477 48.0444C10.989 47.6751 16.0733 47.2939 21.1454 46.9365C23.283 46.7816 24.1646 46.1264 24.7443 44.0773C25.4568 41.5635 25.964 38.9902 26.8214 36.5123C28.5363 31.592 31.1207 27.2317 35.2388 23.8602C37.4247 22.0732 39.9366 20.8581 42.4365 19.5952C46.8928 17.3317 51.6872 16.0927 56.5299 14.9848C62.2784 13.6743 67.9906 13.7577 73.7028 15.0324C77.7847 15.9497 81.4801 17.6653 84.4993 20.6317C86.0451 22.1566 87.2528 23.9198 88.1706 25.8736C89.0522 27.7678 90.7912 28.566 92.8322 28.0061C94.4142 27.5653 95.7064 26.6241 96.9986 25.683C99.269 24.027 101.467 22.2638 103.906 20.8581C105.295 20.048 106.756 19.4165 108.278 18.8804C108.773 18.7137 108.942 18.7375 108.846 19.3212C108.278 22.7999 107.3 26.1595 105.827 29.3761C104.933 31.318 103.798 33.1169 102.663 34.9159C102.216 35.6188 101.769 36.3336 101.503 37.1318C101.068 38.4184 101.274 39.6097 102.252 40.539C104.716 42.8502 106.128 45.8047 107.457 48.795C109.437 53.2506 110.923 57.8849 112.348 62.5311C113.58 66.5221 114.715 70.525 115.717 74.5756C116.466 77.5777 116.961 80.6276 117.179 83.725C117.263 84.9164 117.529 86.0958 118.06 87.168C119.195 89.4792 121.26 90.3251 123.845 89.6222C125.982 89.0503 128.023 88.2045 130.125 87.5254C131.429 87.1084 132.745 86.7987 134.146 86.8344C136.537 86.9178 138.615 88.4904 139.351 90.742C140.329 93.6846 139.834 96.4843 138.518 99.1886C137.479 101.321 135.958 103.12 134.207 104.705C132.238 106.492 130.366 108.362 128.917 110.602C127.697 112.508 126.816 114.521 126.949 116.844C127.033 118.417 127.842 119.644 128.772 120.835C131.767 124.659 135.245 128.019 138.892 131.212C142.636 134.488 146.549 137.55 150.353 140.743C154.29 144.054 157.792 147.771 160.377 152.251C160.896 153.156 161.306 154.097 161.572 155.098C162.164 157.386 161.415 158.756 159.205 159.673C157.599 160.352 155.872 160.543 154.205 160.971C149.761 162.127 145.704 163.986 142.37 167.166C139.194 170.181 137.226 173.826 136.453 178.139C135.414 183.905 133.554 189.385 130.221 194.305C129.364 195.556 128.374 196.7 127.214 197.689C124.328 200.143 121.043 200.858 117.384 199.869C113.568 198.844 109.945 197.319 106.334 195.759C103.532 194.555 100.742 193.328 97.7594 192.602C91.226 191.005 85.1273 192.054 79.5237 195.711C75.4418 198.368 71.8068 201.572 68.4616 205.075C66.7708 206.85 64.8869 208.351 62.5803 209.304C59.7423 210.472 57.1699 210.078 54.815 208.149C53.9817 207.458 53.2571 206.659 52.605 205.813C48.0883 199.94 42.1225 197.438 34.7075 198.284C32.6907 198.511 30.8067 199.202 28.8986 199.833C24.9013 201.155 20.916 202.525 16.9186 203.848C15.8076 204.217 14.6362 204.336 13.4768 203.991C11.6049 203.431 10.8079 201.989 10.4335 200.262C10.1074 198.701 10.6146 197.367 11.9189 196.438C14.3705 194.686 16.7133 192.804 18.875 190.707C20.288 189.337 21.6164 187.872 22.9207 186.395C24.9375 184.107 26.0606 181.463 26.4712 178.472C27.0026 174.684 27.063 170.872 27.0751 167.047C27.0871 162.282 26.7852 157.517 27.0388 152.751C27.3407 147.045 27.9204 141.362 29.0315 135.739C29.587 132.904 29.9131 130.032 29.6111 127.126C29.4541 125.648 29.116 124.231 28.2103 123.003C27.4857 122.015 26.5316 121.371 25.3239 121.121C21.713 120.359 17.8968 119.966 16.4356 119.846C7.96987 119.155 5.28886 106.789 15.9042 106.086C18.3074 105.693 20.3967 105.693 22.1357 105.538C25.2394 105.253 27.22 103.549 28.2103 100.69C29.0073 98.3785 28.9832 95.9839 28.7658 93.5774C28.3189 89.5507 27.3045 85.6193 26.0968 81.5091Z" fill="#B33027"/>
<path d="M79.1252 45.9834C81.8787 55.1924 76.5167 64.878 67.1694 67.5704C57.8221 70.2629 48.1125 64.9733 45.3228 55.7166C42.7505 47.1509 47.2913 37.1198 57.2907 34.201C66.6622 31.4729 76.3717 36.7862 79.1252 45.9834Z" fill="white"/>
<path d="M67.4471 62.5549C60.5756 64.5087 53.4262 60.6368 51.506 53.8343C49.5496 46.9007 53.7402 39.8599 60.7929 38.1205C67.0607 36.5718 74.2825 39.979 76.251 47.1509C78.0504 53.7628 74.2221 60.5773 67.4471 62.5549Z" fill="#19191A"/>
<path d="M65.3096 43.7437C64.9231 42.3617 65.6719 40.956 67.0003 40.5866C68.4012 40.1935 69.9349 41.0989 70.3455 42.5643C70.7441 43.9462 70.0074 45.352 68.691 45.7451C67.2781 46.1621 65.7202 45.2448 65.3096 43.7437Z" fill="white"/>
<path d="M64.1502 42.326C64.5729 43.7318 63.8362 45.1614 62.4837 45.5545C61.0948 45.9596 59.5611 45.0661 59.1264 43.5888C58.7278 42.2069 59.4403 40.813 60.7688 40.396C62.1455 39.9791 63.7155 40.8726 64.1502 42.326Z" fill="white"/>
<path d="M67.3505 47.9968C67.7853 49.4383 67.0607 50.8322 65.684 51.2134C64.2951 51.5946 62.7856 50.7249 62.3387 49.2953C61.904 47.9134 62.6648 46.4838 64.0415 46.0906C65.4787 45.6856 66.9037 46.5076 67.3505 47.9968Z" fill="white"/>
<path d="M63.8121 80.2225C59.8872 79.1265 56.1918 75.9337 52.2669 76.8033C49.296 77.4586 47.1343 80.5918 47.086 83.8322C47.0377 87.0727 48.8854 90.2178 51.494 91.981C54.6339 94.1135 58.5709 94.328 62.2301 93.9467C66.1791 93.5417 70.1403 92.4814 73.3889 90.1344C76.6375 87.7875 79.1132 84.0229 79.3668 79.8294C79.4392 78.6618 79.3185 77.4348 78.7509 76.4221C77.9055 74.9091 76.1786 74.1467 74.5361 73.9918C69.0292 73.4914 64.2348 78.5665 58.7279 78.0781" fill="black"/>
<path d="M64.1381 79.0788C63.4981 78.9001 62.8822 78.6738 62.2663 78.4117C62.3629 78.4474 62.4595 78.4951 62.5561 78.5308C59.7906 77.3752 57.1216 75.6478 54.0421 75.481C52.5808 75.3976 51.0833 75.755 49.8395 76.5413C48.6559 77.2918 47.6777 78.364 47.0015 79.5911C46.301 80.8777 45.9025 82.3312 45.8662 83.7965C45.83 85.3453 46.2044 86.8463 46.8324 88.2521C47.4121 89.5745 48.2936 90.7897 49.3443 91.8023C50.4916 92.9103 51.8562 93.7085 53.3417 94.2922C54.7909 94.8641 56.3487 95.1381 57.9066 95.2572C59.3679 95.3644 60.8292 95.3049 62.2784 95.1619C65.4907 94.8283 68.6669 94.1016 71.5653 92.6601C74.2463 91.3258 76.5529 89.3362 78.1953 86.8583C78.9924 85.655 79.6204 84.3207 80.031 82.9507C80.2604 82.2001 80.3933 81.4377 80.4899 80.6633C80.5865 79.9366 80.6227 79.2099 80.5503 78.4831C80.4536 77.5539 80.2483 76.6723 79.7894 75.8503C79.3788 75.1236 78.7991 74.5398 78.1229 74.0514C76.9394 73.1936 75.4177 72.8362 73.9806 72.8005C71.1667 72.729 68.5582 73.9084 66.0463 75.0283C65.4666 75.2904 64.8748 75.5524 64.2831 75.7907C64.3797 75.755 64.4763 75.7073 64.5729 75.6716C63.2324 76.2315 61.8557 76.72 60.4065 76.9106C60.5152 76.8987 60.6239 76.8867 60.7325 76.8629C60.0683 76.9463 59.4041 76.9701 58.7399 76.9106C58.4501 76.8868 58.0878 77.0654 57.8825 77.2561C57.6772 77.4586 57.5081 77.8041 57.5322 78.1019C57.5443 78.4117 57.653 78.7333 57.8825 78.9478C58.1361 79.1741 58.4018 79.2694 58.7399 79.2933C61.6141 79.5434 64.3314 78.3759 66.8795 77.2442C67.58 76.9344 68.2804 76.6127 68.9929 76.3149C68.8963 76.3506 68.7997 76.3983 68.7031 76.434C70.0315 75.886 71.3962 75.3976 72.8212 75.207C72.7125 75.2189 72.6038 75.2308 72.4952 75.2546C73.256 75.1474 74.041 75.1355 74.8139 75.2308C74.7052 75.2189 74.5965 75.207 74.4878 75.1831C75.0433 75.2546 75.5868 75.3976 76.1061 75.612C76.0095 75.5763 75.9128 75.5286 75.8162 75.4929C76.2389 75.6716 76.6254 75.886 76.9877 76.16C76.9031 76.1005 76.8186 76.0409 76.7461 75.9694C77.048 76.1958 77.3137 76.4579 77.5432 76.7557C77.4828 76.6723 77.4224 76.5889 77.35 76.5174C77.5673 76.8034 77.7485 77.1012 77.8813 77.4229C77.8451 77.3275 77.7968 77.2322 77.7606 77.1369C77.9417 77.5777 78.0625 78.0304 78.1349 78.507C78.1229 78.3997 78.1108 78.2925 78.0866 78.1853C78.1953 79.0312 78.1591 79.8889 78.0504 80.7348C78.0625 80.6276 78.0746 80.5203 78.0987 80.4131C77.9417 81.5449 77.6277 82.6528 77.1809 83.7012C77.2171 83.6059 77.2654 83.5106 77.3016 83.4153C76.8186 84.5471 76.1785 85.6074 75.4177 86.5843C75.4781 86.5009 75.5385 86.4175 75.6109 86.346C74.8139 87.3705 73.8719 88.2879 72.8333 89.0741C72.9178 89.0146 73.0024 88.955 73.0748 88.8835C71.8672 89.8009 70.5387 90.5395 69.1379 91.1233C69.2345 91.0875 69.3311 91.0399 69.4277 91.0041C67.3385 91.8738 65.1284 92.3861 62.8943 92.6839C63.0029 92.672 63.1116 92.6601 63.2203 92.6363C61.1432 92.9103 59.0418 93.0175 56.9647 92.7435C57.0733 92.7554 57.182 92.7673 57.2907 92.7911C56.0951 92.6363 54.9237 92.3503 53.8127 91.8857C53.9093 91.9215 54.0059 91.9691 54.1025 92.0048C53.2451 91.6474 52.4238 91.1947 51.6872 90.6348C51.7717 90.6944 51.8562 90.7539 51.9287 90.8254C51.2403 90.3012 50.6244 89.6817 50.081 89.0027C50.1414 89.0861 50.2017 89.1695 50.2742 89.2409C49.7187 88.538 49.2598 87.7637 48.9096 86.9417C48.9458 87.037 48.9941 87.1323 49.0303 87.2276C48.7043 86.4532 48.4627 85.6312 48.354 84.7972C48.3661 84.9045 48.3782 85.0117 48.4023 85.1189C48.3057 84.3803 48.2936 83.6297 48.3903 82.8911C48.3782 82.9983 48.3661 83.1055 48.342 83.2128C48.4386 82.5099 48.6318 81.8189 48.9216 81.1517C48.8854 81.2471 48.8371 81.3424 48.8009 81.4377C49.0666 80.8182 49.4047 80.2463 49.8274 79.7102C49.767 79.7936 49.7066 79.877 49.6342 79.9485C50.0085 79.4839 50.4191 79.055 50.9022 78.6976C50.8177 78.7572 50.7331 78.8167 50.6607 78.8882C51.0713 78.5785 51.506 78.3164 51.9891 78.1257C51.8925 78.1615 51.7959 78.2091 51.6993 78.2449C52.1702 78.0543 52.6654 77.9232 53.1605 77.8636C53.0518 77.8756 52.9431 77.8875 52.8345 77.9113C53.4262 77.8398 54.018 77.8517 54.5976 77.9232C54.4889 77.9113 54.3803 77.8994 54.2716 77.8756C55.3464 78.0185 56.3729 78.364 57.3753 78.781C57.2786 78.7452 57.182 78.6976 57.0854 78.6618C59.2351 79.5554 61.2518 80.7467 63.5102 81.39C64.114 81.5568 64.8627 81.1756 65.0077 80.5561C65.1284 79.9128 64.7903 79.2575 64.1381 79.0788Z" fill="black"/>
<path d="M163.637 202.895C165.243 202.895 166.826 202.811 168.395 202.406C170.956 201.739 173.262 200.5 175.581 199.273C178.673 197.629 181.595 195.687 184.602 193.888C187.175 192.339 189.807 190.91 192.802 190.326C196.957 189.516 200.882 190.171 204.637 192.077C208.623 194.091 212.306 196.533 215.857 199.213C218.586 201.286 221.641 202.764 225.095 203.216C229.394 203.776 232.981 202.371 235.892 199.225C236.979 198.058 237.836 196.724 238.609 195.342C241.411 190.326 245.746 187.931 251.519 188.051C253.765 188.098 255.927 188.682 258.125 189.028C260.431 189.385 262.714 189.826 265.008 190.243C266.457 190.505 267.883 190.838 269.356 190.934C273.341 191.208 277.037 189.635 278.824 185.954C280.358 182.821 280.49 179.628 278.631 176.53C277.64 174.886 276.107 173.826 274.392 172.968C269.996 170.752 265.999 167.977 262.521 164.522C261.482 163.485 261.023 162.151 260.6 160.817C259.465 157.231 258.898 153.526 258.318 149.821C257.581 145.067 257.086 140.278 256.144 135.548C255.202 130.831 253.874 126.196 252.497 121.586C251.809 119.287 250.83 117.071 250.299 114.712C250.009 113.437 249.792 112.15 249.852 110.84C249.876 110.28 250.045 109.934 250.673 109.72C253.837 108.66 257.074 107.873 260.286 106.98C273.969 100.332 266.349 83.0341 253.789 84.1063C252.098 84.2611 250.396 84.3803 248.705 84.5351C247.823 84.6066 247.195 84.273 246.785 83.5106C245.927 81.9142 245.722 80.1748 245.601 78.4117C245.323 74.0514 245.879 69.7387 246.507 65.4499C247.062 61.6853 247.847 57.9564 248.693 54.2394C249.321 51.4993 250.021 48.7711 250.758 46.0549C250.842 45.7332 251.072 45.6022 251.301 45.4711C254.236 43.8033 256.7 41.6231 258.668 38.9188C260.323 36.6314 261.687 34.2011 262.062 31.3657C262.448 28.4707 260.6 26.0046 257.702 25.3971C256.18 25.0754 254.707 25.3732 253.222 25.4805C249.369 25.7425 245.517 26.0642 241.664 26.3859C241.254 26.4216 241.109 26.2191 240.988 25.8974C239.792 22.8714 238.464 19.905 236.737 17.1292C232.715 10.6364 227.172 6.0378 219.806 3.64321C216.545 2.58291 213.272 1.55836 209.879 1.01035C206.763 0.509983 203.611 0.271715 200.459 0.0811009C193.817 -0.335868 187.464 0.867385 181.366 3.40494C176.583 5.38256 172.562 8.36091 169.627 12.6497C168.552 14.2223 167.683 15.914 167.067 17.7129C166.922 18.118 166.777 18.1418 166.427 17.9631C164.132 16.7718 161.838 15.5685 159.519 14.4129C156.633 12.9714 153.59 12.0064 150.389 11.5775C149.677 11.4822 148.952 11.4703 148.228 11.5775C145.885 11.9468 144.46 13.7696 144.689 16.0927C144.943 18.6303 145.957 20.9295 146.959 23.2288C148.771 27.4104 151.271 31.1393 154.362 34.4989C154.809 34.9754 154.894 35.309 154.495 35.9166C153.119 38.0253 152.273 40.3722 151.561 42.7668C149.218 50.6177 148.215 58.7188 147.177 66.7961C146.778 69.9055 146.501 73.0268 146.368 76.1481C146.283 78.1853 146.392 80.2225 146.549 82.2478C146.561 82.4503 146.549 82.6409 146.549 82.8434C146.525 83.8918 146.525 83.8918 145.45 83.7489C143.155 83.4391 140.921 82.7958 138.615 82.5813C135.161 82.2716 131.924 82.7958 129.231 85.1666C126.876 87.2395 125.741 89.9081 125.596 92.9817C125.282 99.7009 128.7 104.514 133.772 108.469C135.245 109.613 136.888 110.542 138.325 111.757C139.472 112.734 140.535 113.771 141.356 115.045C141.972 116.022 142.081 116.916 141.44 118.012C139.122 121.979 136.38 125.624 133.41 129.127C130.282 132.832 126.949 136.37 123.736 140.004C120.005 144.233 116.853 148.867 114.751 154.121C113.894 156.278 113.326 158.505 113.568 160.852C113.942 164.438 116.019 166.702 119.389 167.893C121.405 168.608 123.519 168.679 125.62 168.834C128.748 169.061 131.767 169.728 134.569 171.193C138.494 173.242 141.018 176.352 142.443 180.557C144.23 185.859 146.887 190.779 150.486 195.139C152.696 197.82 155.256 200.083 158.481 201.548C159.543 202.037 160.666 202.311 161.765 202.656C162.357 202.716 162.997 202.799 163.637 202.895Z" fill="#FFBEBA"/>
<path d="M241.254 66.2957C242.002 61.1968 243.065 55.9549 244.333 50.7487C244.973 48.1278 245.662 45.5188 246.398 42.9216C246.519 42.4928 246.736 42.2545 247.123 42.0639C250.371 40.4436 253.125 38.2516 255.118 35.2018C255.927 33.9628 256.567 32.6523 256.965 31.2227C257.134 30.627 256.748 30.1743 256.12 30.222C251.036 30.6032 245.963 30.9963 240.879 31.3776C238.742 31.5443 237.763 31.0202 236.882 29.0902C235.795 26.7075 234.901 24.2414 233.67 21.9183C231.218 17.3078 228.006 13.3883 223.416 10.6602C220.989 9.21864 218.308 8.38471 215.651 7.50312C210.893 5.93055 205.978 5.41827 201.014 5.03704C195.133 4.59625 189.493 5.52549 184.047 7.63416C180.146 9.14716 176.752 11.3869 174.228 14.7703C172.924 16.5096 172.006 18.4277 171.403 20.5006C170.823 22.5021 169.217 23.5505 167.127 23.3003C165.497 23.1097 164.072 22.3591 162.659 21.6205C160.159 20.3219 157.72 18.9042 155.087 17.8678C153.59 17.284 152.044 16.867 150.462 16.5573C149.955 16.462 149.785 16.5096 149.967 17.0815C151.066 20.4411 152.539 23.61 154.483 26.5645C155.655 28.3516 157.056 29.9599 158.456 31.5682C159.012 32.1996 159.555 32.8429 159.942 33.5815C160.57 34.7848 160.546 36 159.712 37.0602C157.623 39.7169 156.681 42.8382 155.824 45.9953C154.544 50.7011 153.783 55.4903 153.082 60.3033C152.479 64.4253 151.959 68.5593 151.585 72.7051C151.307 75.7907 151.271 78.8763 151.537 81.9618C151.633 83.1532 151.561 84.3564 151.198 85.5001C150.425 87.9543 148.517 89.0979 145.848 88.7882C143.651 88.538 141.501 88.0138 139.315 87.6564C137.962 87.4301 136.61 87.3229 135.245 87.573C132.89 88.0019 131.079 89.8723 130.692 92.2073C130.185 95.2691 131.091 97.9496 132.806 100.439C134.158 102.393 135.934 103.942 137.914 105.264C140.136 106.742 142.274 108.314 144.037 110.316C145.534 112.019 146.718 113.878 146.935 116.201C147.092 117.762 146.476 119.096 145.74 120.418C143.373 124.648 140.438 128.484 137.322 132.177C134.122 135.965 130.716 139.575 127.444 143.304C124.05 147.164 121.164 151.357 119.292 156.17C118.918 157.135 118.652 158.136 118.555 159.161C118.326 161.508 119.268 162.747 121.599 163.342C123.289 163.771 125.028 163.7 126.743 163.89C131.308 164.367 135.607 165.606 139.387 168.251C142.986 170.764 145.486 174.076 146.911 178.222C148.819 183.762 151.488 188.92 155.546 193.281C156.585 194.389 157.744 195.377 159.036 196.176C162.261 198.177 165.618 198.391 169.096 196.867C172.707 195.282 176.052 193.245 179.385 191.16C181.97 189.552 184.542 187.92 187.38 186.764C193.599 184.214 199.783 184.346 205.893 187.133C210.338 189.159 214.407 191.779 218.26 194.746C220.204 196.247 222.293 197.462 224.721 198.058C227.704 198.796 230.191 198.01 232.22 195.759C232.945 194.96 233.537 194.055 234.056 193.114C237.619 186.633 243.138 183.273 250.601 183.011C252.63 182.94 254.598 183.333 256.579 183.678C260.733 184.393 264.888 185.156 269.042 185.87C270.201 186.073 271.373 186.013 272.46 185.501C274.223 184.667 274.802 183.13 274.899 181.355C274.984 179.759 274.271 178.52 272.846 177.793C270.153 176.423 267.556 174.91 265.093 173.159C263.487 172.015 261.953 170.764 260.443 169.49C258.1 167.524 256.591 165.082 255.721 162.187C254.622 158.517 253.97 154.753 253.379 150.988C252.642 146.282 252.219 141.517 251.241 136.847C250.07 131.248 248.632 125.72 246.688 120.323C245.698 117.607 244.949 114.807 244.804 111.9C244.732 110.423 244.865 108.969 245.565 107.611C246.133 106.527 246.978 105.753 248.137 105.312C251.591 104.025 255.299 103.072 256.736 102.739C264.996 100.797 265.769 88.1687 255.166 89.0622C252.726 89.0265 250.661 89.3481 248.922 89.4434C245.819 89.6221 243.596 88.2283 242.184 85.5478C241.048 83.3795 240.698 81.0088 240.553 78.6022C240.287 74.5874 240.686 70.5369 241.254 66.2957Z" fill="#E74033"/>
<path d="M183.419 39.0498C182.102 48.5686 188.877 57.3369 198.527 58.6116C208.176 59.8863 216.968 53.2148 218.32 43.6484C219.564 34.7967 213.538 25.5638 203.2 24.1581C193.527 22.8476 184.735 29.5429 183.419 39.0498Z" fill="white"/>
<path d="M197.488 53.7033C204.577 54.6206 211.05 49.7242 211.92 42.7191C212.801 35.5711 207.572 29.2332 200.338 28.566C193.913 27.9703 187.283 32.4021 186.438 39.7884C185.653 46.5791 190.484 52.7502 197.488 53.7033Z" fill="#19191A"/>
<path d="M196.739 34.7848C196.908 33.3671 195.954 32.0805 194.59 31.9137C193.152 31.735 191.764 32.8549 191.583 34.3679C191.401 35.7975 192.343 37.0722 193.708 37.2628C195.157 37.4653 196.546 36.3336 196.739 34.7848Z" fill="white"/>
<path d="M197.669 33.2123C197.464 34.6657 198.418 35.9642 199.807 36.1549C201.244 36.3455 202.621 35.2375 202.826 33.7245C203.007 32.2949 202.089 31.0202 200.712 30.8177C199.287 30.5913 197.874 31.7112 197.669 33.2123Z" fill="white"/>
<path d="M195.363 39.2881C195.157 40.7772 196.075 42.0401 197.5 42.2188C198.925 42.3975 200.302 41.3133 200.519 39.8242C200.737 38.3946 199.758 37.096 198.345 36.9054C196.86 36.7267 195.568 37.7512 195.363 39.2881Z" fill="white"/>
<path d="M206.328 77.1846C201.304 78.3402 196.92 77.5896 192.694 75.6358C189.687 74.242 187.03 72.3358 184.578 70.1438C183.54 69.2264 183.588 67.63 184.626 66.7246C185.484 65.986 186.836 66.0456 187.815 66.951C189.493 68.4759 191.341 69.7625 193.334 70.8705C196.389 72.5741 199.662 73.5153 203.188 73.2174C205.483 73.0149 207.572 72.169 209.456 70.8467C210.386 70.1914 211.243 69.429 212.137 68.7261C213.864 67.3799 215.76 68.5831 215.977 69.8698C216.122 70.7275 215.953 71.49 215.253 72.0737C213.176 73.7893 211.062 75.481 208.514 76.4936C207.681 76.8272 206.811 77.0893 206.328 77.1846Z" fill="#080A0B"/>
</svg>
