<svg width="205" height="255" viewBox="0 0 205 255" fill="none" xmlns="http://www.w3.org/2000/svg">
<path d="M137.08 254.893C135.151 254.628 133.236 254.274 131.41 253.523C128.421 252.286 125.844 250.401 123.252 248.516C119.776 245.998 116.581 243.141 113.253 240.431C110.396 238.119 107.45 235.94 103.931 234.732C99.0565 233.068 94.1968 233.23 89.3372 234.939C84.1977 236.75 79.3233 239.136 74.5961 241.845C70.944 243.936 67.0268 245.247 62.7709 245.232C57.4842 245.218 53.3755 242.905 50.3861 238.576C49.2669 236.956 48.457 235.189 47.7501 233.363C45.2025 226.751 40.3575 223.113 33.3625 222.318C30.6382 222.009 27.9285 222.377 25.2189 222.421C22.3767 222.48 19.5345 222.642 16.7071 222.775C14.9252 222.863 13.1286 223.04 11.3467 222.922C6.48704 222.598 2.29004 220.065 0.743782 215.279C-0.581584 211.185 -0.228153 207.253 2.55512 203.778C4.02774 201.922 6.05997 200.877 8.26892 200.111C13.9533 198.123 19.24 195.369 24.026 191.717C25.4545 190.627 26.235 189.051 26.9713 187.49C28.9299 183.279 30.2405 178.831 31.5512 174.399C33.23 168.7 34.6143 162.912 36.5434 157.272C38.4725 151.647 40.8435 146.183 43.2733 140.764C44.4809 138.054 46.0271 135.507 47.058 132.709C47.6176 131.192 48.1035 129.66 48.2508 128.04C48.3097 127.363 58.353 91.151 58.7801 89.0157C59.8404 83.7143 59.8846 78.3539 59.8404 72.9788C59.7962 68.2664 59.4722 63.5834 59.0599 58.9005C58.7654 55.4398 58.3678 51.9791 57.926 48.5332C57.8671 48.1208 57.6314 47.9294 57.3664 47.7232C54.0971 45.205 51.4906 42.1272 49.5614 38.4898C47.9415 35.4268 46.7045 32.2164 46.7193 28.6821C46.734 25.0742 49.3847 22.3645 52.9779 22.0847C54.8629 21.9375 56.6006 22.556 58.3825 22.9241C62.9918 23.8813 67.6011 24.8975 72.1957 25.9283C72.6964 26.0314 72.8879 25.8252 73.0941 25.4423C75.0379 21.9375 77.1438 18.521 79.6914 15.399C85.6261 8.10949 93.0776 3.38235 102.399 1.65937C106.434 0.864151 110.558 0.127836 114.755 0.0247523C118.598 -0.0783318 122.442 0.157289 126.285 0.422362C134.385 1.01141 141.851 3.51488 148.802 7.62352C154.251 10.8338 158.624 15.1339 161.452 20.8772C162.497 22.983 163.248 25.192 163.705 27.504C163.808 28.0342 163.985 28.0783 164.441 27.9163C167.416 26.8266 170.391 25.7369 173.38 24.706C177.106 23.4101 180.935 22.718 184.896 22.718C185.78 22.718 186.648 22.8211 187.503 23.0714C190.271 23.9108 191.7 26.3701 191.037 29.1681C190.315 32.2312 188.695 34.8819 187.105 37.5473C184.219 42.3628 180.581 46.5304 176.281 50.1383C175.663 50.6537 175.501 51.0366 175.884 51.8613C177.209 54.6593 177.827 57.6782 178.284 60.7265C179.815 70.7257 179.683 80.8132 179.595 90.886C179.565 94.759 179.388 98.632 179.02 102.476C178.785 104.979 178.313 107.453 177.798 109.927C177.754 110.163 177.724 110.413 177.71 110.649C177.577 111.886 177.459 153.105 178.048 154.548C180.184 159.79 182.908 164.709 185.897 169.48C189.064 174.531 192.51 179.406 195.779 184.383C199.578 190.185 202.627 196.356 204.305 203.145C204.983 205.928 205.307 208.755 204.615 211.583C203.569 215.927 200.683 218.342 196.412 219.255C193.864 219.8 191.302 219.535 188.725 219.388C184.911 219.152 181.141 219.476 177.518 220.801C172.438 222.657 168.859 226.059 166.459 230.977C163.425 237.192 159.405 242.773 154.324 247.515C151.202 250.431 147.742 252.787 143.604 254.053C142.249 254.466 140.835 254.628 139.451 254.863C138.641 254.893 137.86 254.893 137.08 254.893Z" fill="#FFBEBA"/>
<path d="M65.9665 74.8638C65.9076 68.502 65.4953 61.9046 64.8179 55.322C64.4792 52.0086 64.0816 48.6951 63.625 45.3965C63.5514 44.8516 63.3305 44.5276 62.9035 44.2184C59.2366 41.7002 56.2914 38.5635 54.3769 34.5137C53.5964 32.8644 53.0516 31.1561 52.8012 29.3448C52.6981 28.579 53.2283 28.0931 53.9793 28.2551C60.0613 29.5657 66.1285 30.8616 72.2105 32.1723C74.7581 32.7171 76.0246 32.2459 77.4089 30.0222C79.1171 27.2831 80.6045 24.4115 82.4747 21.7608C86.2004 16.5182 90.7361 12.2329 96.7297 9.65575C99.9106 8.28621 103.283 7.71188 106.641 7.06393C112.649 5.91527 118.672 6.09199 124.739 6.44542C131.911 6.85776 138.582 8.93416 144.811 12.4096C149.273 14.8983 152.999 18.197 155.488 22.7622C156.769 25.1036 157.564 27.6071 157.947 30.2431C158.315 32.7908 160.082 34.337 162.645 34.3812C164.647 34.4106 166.488 33.7185 168.329 33.0558C171.569 31.8777 174.75 30.5376 178.092 29.6982C180.007 29.227 181.936 28.9619 183.895 28.8588C184.528 28.8294 184.719 28.9177 184.41 29.5804C182.525 33.5123 180.213 37.1645 177.371 40.4632C175.663 42.4512 173.704 44.2036 171.731 45.9413C170.965 46.6187 170.199 47.3109 169.595 48.165C168.638 49.5345 168.462 51.0219 169.286 52.4651C171.363 56.0583 171.996 60.0344 172.496 64.0547C173.262 70.0188 173.38 76.0271 173.439 82.0355C173.483 87.1897 173.424 92.3291 173.189 97.4686C173.012 101.297 172.541 105.082 171.701 108.823C171.377 110.266 171.274 111.753 171.525 113.211C172.055 116.333 172.231 148.687 171.569 151.499C171.127 153.399 171.642 155.122 172.305 156.86C174.47 162.426 177.371 167.595 180.522 172.646C183.762 177.815 187.282 182.793 190.61 187.888C194.071 193.16 196.869 198.785 198.326 204.985C198.621 206.237 198.768 207.489 198.724 208.77C198.621 211.686 197.266 213.055 194.365 213.394C192.244 213.644 190.153 213.276 188.062 213.217C182.466 213.055 177.076 213.88 172.055 216.486C167.283 218.975 163.72 222.613 161.305 227.472C158.079 233.952 154 239.813 148.375 244.496C146.946 245.689 145.371 246.705 143.677 247.471C139.451 249.4 135.357 249.105 131.41 246.675C127.302 244.142 123.605 241.094 119.924 238.002C117.067 235.616 114.225 233.186 111 231.316C103.901 227.178 96.4058 226.324 88.5714 228.739C82.8723 230.491 77.5119 233.039 72.3577 236.043C69.7512 237.56 67.0268 238.708 63.9932 239.032C60.2674 239.445 57.3958 238.09 55.3047 234.983C54.5684 233.878 53.9941 232.685 53.5228 231.448C50.283 222.937 44.1716 217.915 35.2033 216.369C32.7735 215.942 30.3142 216.104 27.8696 216.207C22.7301 216.413 17.5907 216.663 12.4512 216.855C11.0227 216.914 9.60901 216.648 8.372 215.839C6.38395 214.528 5.94217 212.54 6.11888 210.36C6.28087 208.402 7.34116 206.988 9.19668 206.34C12.6868 205.103 16.0739 203.675 19.3284 201.922C21.4637 200.774 23.5254 199.492 25.5576 198.196C28.709 196.179 30.9474 193.425 32.4789 190.023C34.4228 185.709 35.8218 181.202 37.1619 176.681C38.8407 171.041 40.1366 165.268 42.0952 159.717C44.4367 153.06 47.0874 146.522 50.3419 140.234C51.9913 137.068 53.3608 133.769 54.0235 130.22C54.3622 128.423 60.2527 101.798 61.5781 98.3816C63.3158 95.9076 64.1257 93.0655 64.7001 90.1349C65.7604 85.1722 65.9371 80.1505 65.9665 74.8638Z" fill="#B33027"/>
<path d="M140.364 50.963C140.364 62.8324 130.733 72.4781 118.863 72.4486C106.979 72.4339 97.4661 62.8176 97.4366 50.8746C97.4072 39.8299 106.213 29.5068 118.937 29.4773C130.851 29.4626 140.364 39.0936 140.364 50.963Z" fill="white"/>
<path d="M125.431 91.6075C119.217 92.5058 113.96 91.1363 109.026 88.2941C105.521 86.2766 102.488 83.6406 99.7339 80.6953C98.5705 79.4583 98.7914 77.485 100.146 76.4983C101.265 75.6737 102.9 75.8946 104.005 77.1021C105.89 79.1638 107.995 80.931 110.293 82.4919C113.827 84.9071 117.7 86.4091 122.03 86.3944C124.842 86.3944 127.464 85.555 129.893 84.1266C131.101 83.4197 132.205 82.5656 133.369 81.7998C135.607 80.3125 137.787 81.9913 137.919 83.6111C138.008 84.6714 137.728 85.6139 136.815 86.2472C134.105 88.1468 131.381 90.0024 128.17 91.0037C127.11 91.313 126.035 91.5486 125.431 91.6075Z" fill="#080A0B"/>
<path d="M120.94 66.6023C112.222 66.5582 105.212 59.5043 105.33 50.7863C105.448 41.8916 112.811 34.985 121.676 35.3384C129.54 35.6624 136.815 42.1714 136.609 51.3606C136.417 59.8135 129.555 66.5876 120.94 66.6023Z" fill="#19191A"/>
<path d="M124.99 43.5557C125.019 41.7885 126.389 40.3748 128.067 40.3895C129.834 40.4042 131.322 42.0094 131.292 43.8797C131.278 45.6468 129.923 47.0753 128.244 47.09C126.462 47.1047 124.96 45.4848 124.99 43.5557Z" fill="white"/>
<path d="M124.121 41.4792C124.121 43.2906 122.766 44.7338 121.058 44.7338C119.29 44.7338 117.803 43.1433 117.818 41.2584C117.833 39.4765 119.158 38.0775 120.851 38.048C122.604 38.0038 124.121 39.5943 124.121 41.4792Z" fill="white"/>
<path d="M125.903 49.2989C125.903 51.1544 124.577 52.5534 122.839 52.5387C121.087 52.524 119.614 50.963 119.585 49.1222C119.556 47.3256 120.955 45.8971 122.692 45.9119C124.518 45.9266 125.903 47.3845 125.903 49.2989Z" fill="white"/>
<path d="M83.9326 129.322C83.6675 128.129 83.4025 126.936 83.1227 125.743C83.1227 125.287 83.1521 124.83 83.1227 124.374C82.7545 118.586 83.8148 113.196 88.0265 108.926C92.9745 103.904 101.074 101.062 108.467 106.039C109.895 106.997 111.294 108.027 112.781 109.073C113.12 108.499 113.356 107.924 113.739 107.468C115.815 105.008 117.626 102.225 120.071 100.193C125.284 95.834 137.507 95.024 144.075 104.199C145.444 106.113 146.431 108.307 147.594 110.369C147.918 111.841 148.257 113.299 148.581 114.772C148.61 115.553 148.625 116.348 148.684 117.128C149.008 122.371 147.565 127.245 145.385 131.913C140.894 141.53 134.576 149.762 126.521 156.712C125.196 157.861 124.18 158.126 122.501 157.64C114.21 155.24 106.155 152.368 99.086 147.258C93.652 143.326 88.6156 139.011 85.5378 132.871C84.9487 131.707 84.4628 130.5 83.9326 129.322Z" fill="#FFBEBA"/>
<path d="M170.508 151.264C170.906 150.513 172.305 110.531 171.48 110.531C171.48 110.531 170.096 118.13 156.357 120.81C143.25 123.372 124.636 125.242 121.293 136.876C117.936 148.495 132.412 149.85 133.663 149.983C134.93 150.115 166.871 148.053 170.538 151.868" fill="#C6362C"/>
<path d="M52.1385 136.596C52.9927 135.374 61.4603 98.6173 61.4603 98.6173C61.4603 98.6173 63.8901 107.438 76.5695 112.696C88.6597 117.717 106.199 123.137 107.053 135.08C107.907 147.023 93.7109 145.535 92.4739 145.417C91.2368 145.3 55.29 136.125 50.9752 139.129" fill="#C6362C"/>
</svg>
