<svg width="208" height="235" viewBox="0 0 208 235" fill="none" xmlns="http://www.w3.org/2000/svg">
<path d="M126.029 234.344C124.256 234.101 122.495 233.776 120.817 233.085C118.068 231.948 115.699 230.215 113.316 228.482C110.121 226.167 107.183 223.54 104.123 221.049C101.496 218.923 98.7884 216.919 95.5526 215.809C91.0711 214.279 86.6032 214.428 82.1353 215.999C77.4101 217.664 72.9287 219.857 68.5826 222.349C65.2249 224.271 61.6235 225.476 57.7107 225.463C52.8501 225.449 49.0727 223.323 46.3243 219.343C45.2953 217.854 44.5506 216.229 43.9007 214.55C41.5585 208.471 37.1041 205.127 30.673 204.396C28.1683 204.111 25.6771 204.45 23.1859 204.49C20.5728 204.545 17.9598 204.694 15.3602 204.815C13.722 204.897 12.0702 205.059 10.432 204.951C5.96409 204.653 2.10543 202.324 0.683822 197.924C-0.5347 194.16 -0.209761 190.545 2.34914 187.35C3.70305 185.644 5.57145 184.683 7.60232 183.979C12.8284 182.151 17.689 179.619 22.0892 176.261C23.4025 175.26 24.1201 173.811 24.797 172.376C26.5977 168.504 27.8027 164.415 29.0077 160.339C30.5512 155.1 31.8238 149.779 33.5975 144.593C35.3711 139.422 37.5509 134.398 39.7849 129.416C40.8951 126.925 42.3167 124.583 43.2644 122.01C43.7789 120.616 44.2257 119.208 44.3611 117.718C44.4152 117.095 44.2934 116.676 43.6164 116.337C40.2587 114.672 36.7927 113.291 33.3538 111.802C19.1647 102.243 30.2804 83.9111 44.0632 87.0116C45.9181 87.4448 47.7865 87.8375 49.6413 88.2572C50.6026 88.4738 51.3608 88.1895 51.943 87.3907C53.148 85.7254 53.6354 83.7893 54.028 81.8261C55.0028 76.952 55.0435 72.0238 55.0028 67.082C54.9622 62.7495 54.6644 58.444 54.2853 54.1386C54.0145 50.9569 53.6489 47.7752 53.2428 44.6071C53.1886 44.228 52.972 44.052 52.7283 43.8624C49.7226 41.5472 47.3261 38.7175 45.5525 35.3734C44.0632 32.5573 42.9259 29.6057 42.9395 26.3563C42.953 23.0393 45.39 20.5481 48.6936 20.2908C50.4266 20.1554 52.0242 20.7241 53.6625 21.0625C57.9002 21.9426 62.138 22.8768 66.3622 23.8245C66.8225 23.9193 66.9985 23.7297 67.1881 23.3777C68.9752 20.1554 70.9113 17.0143 73.2536 14.1441C78.7099 7.44219 85.5607 3.09614 94.131 1.51206C97.8542 0.794486 101.645 0.117531 105.504 0.0227568C109.038 -0.072017 112.571 0.144609 116.105 0.388313C123.551 0.929878 130.416 3.23153 136.806 7.00894C141.816 9.96047 145.837 13.9139 148.436 19.1941C149.398 21.1302 150.088 23.1611 150.508 25.2867C150.603 25.7742 150.765 25.8148 151.185 25.6658C153.92 24.6639 156.655 23.6621 159.403 22.7143C162.829 21.5229 166.349 20.8865 169.991 20.8865C170.803 20.8865 171.602 20.9813 172.387 21.2115C174.933 21.9832 176.246 24.2442 175.637 26.8167C174.973 29.6328 173.484 32.0698 172.022 34.5204C169.368 38.9477 166.024 42.7793 162.07 46.0964C161.502 46.5702 161.353 46.9223 161.705 47.6804C162.923 50.2529 163.492 53.0284 163.912 55.831C165.32 65.0241 165.198 74.2983 165.117 83.5591C165.09 87.1199 164.927 90.6807 164.589 94.2144C164.372 96.516 163.939 98.7906 163.465 101.065C163.424 101.282 163.397 101.512 163.384 101.729C163.262 102.907 163.262 102.906 164.467 102.906C167.053 102.906 169.639 102.514 172.238 102.622C176.124 102.798 179.644 103.868 182.271 106.941C184.572 109.635 185.425 112.817 185.114 116.297C184.437 123.906 179.901 128.82 173.66 132.517C171.846 133.586 169.882 134.371 168.109 135.536C166.687 136.456 165.347 137.458 164.25 138.785C163.411 139.801 163.153 140.775 163.695 142.102C165.658 146.922 168.163 151.444 170.911 155.831C173.822 160.475 176.99 164.956 179.996 169.532C183.489 174.867 186.292 180.54 187.835 186.781C188.458 189.34 188.756 191.94 188.12 194.539C187.158 198.533 184.505 200.754 180.578 201.593C178.236 202.094 175.88 201.85 173.511 201.715C170.004 201.498 166.538 201.796 163.208 203.015C158.537 204.721 155.247 207.848 153.04 212.37C150.251 218.084 146.554 223.215 141.883 227.575C139.013 230.255 135.831 232.422 132.027 233.586C130.781 233.965 129.482 234.114 128.209 234.331C127.464 234.344 126.747 234.344 126.029 234.344Z" fill="#FFBEBA"/>
<path d="M60.6458 68.8282C60.5916 62.9793 60.2125 56.9137 59.5897 50.8618C59.2783 47.8155 58.9128 44.7692 58.4931 41.7364C58.4254 41.2355 58.2223 40.9376 57.8296 40.6533C54.4584 38.3381 51.7506 35.4543 49.9905 31.731C49.2729 30.2146 48.772 28.6441 48.5418 26.9788C48.447 26.2748 48.9344 25.828 49.6249 25.9769C55.2166 27.1819 60.7947 28.3733 66.3864 29.5783C68.7287 30.0793 69.893 29.646 71.1657 27.6016C72.7362 25.0833 74.1037 22.4432 75.8232 20.0062C79.2486 15.1863 83.4186 11.2464 88.929 8.87703C91.8535 7.61789 94.954 7.08987 98.0409 6.49415C103.565 5.4381 109.102 5.60057 114.68 5.92551C121.274 6.3046 127.407 8.21361 133.134 11.4088C137.237 13.6969 140.662 16.7297 142.95 20.9268C144.128 23.0795 144.859 25.3812 145.211 27.8047C145.55 30.147 147.174 31.5686 149.53 31.6092C151.372 31.6363 153.064 30.9999 154.756 30.3907C157.735 29.3075 160.659 28.0755 163.733 27.3037C165.493 26.8705 167.266 26.6268 169.067 26.532C169.649 26.5049 169.825 26.5862 169.541 27.1954C167.808 30.8104 165.682 34.1681 163.069 37.2008C161.499 39.0286 159.698 40.6398 157.884 42.2374C157.18 42.8602 156.476 43.4965 155.921 44.2818C155.041 45.5409 154.878 46.9084 155.636 48.2352C157.545 51.5387 158.128 55.1943 158.588 58.8905C159.292 64.3738 159.4 69.8977 159.454 75.4217C159.495 80.1604 159.441 84.8855 159.224 89.6107C159.062 93.1308 158.629 96.6104 157.857 100.049C157.559 101.376 157.464 102.744 157.694 104.084C158.182 106.954 160.131 108.538 163.137 108.592C165.615 108.633 168.092 108.376 170.57 108.295C172.114 108.254 173.63 108.322 175.106 108.823C177.651 109.662 179.384 112.045 179.452 114.726C179.56 118.246 178.138 121.143 175.837 123.675C174.036 125.679 171.829 127.155 169.433 128.332C166.738 129.659 164.125 131.108 161.851 133.098C159.928 134.791 158.331 136.7 157.721 139.286C157.315 141.032 157.789 142.616 158.398 144.214C160.389 149.332 163.056 154.084 165.953 158.728C168.932 163.48 172.168 168.056 175.228 172.741C178.409 177.588 180.982 182.76 182.322 188.46C182.593 189.61 182.728 190.761 182.688 191.939C182.593 194.62 181.347 195.879 178.68 196.19C176.73 196.421 174.808 196.082 172.885 196.028C167.74 195.879 162.785 196.637 158.168 199.034C153.782 201.322 150.505 204.666 148.285 209.134C145.32 215.091 141.569 220.48 136.397 224.785C135.084 225.882 133.635 226.816 132.078 227.52C128.193 229.294 124.429 229.023 120.8 226.789C117.023 224.46 113.624 221.657 110.24 218.814C107.613 216.621 105 214.387 102.035 212.668C95.5091 208.863 88.6176 208.078 81.4148 210.298C76.1752 211.909 71.2469 214.252 66.5082 217.014C64.1118 218.408 61.6071 219.464 58.818 219.762C55.3926 220.141 52.7525 218.896 50.8299 216.039C50.153 215.023 49.6249 213.927 49.1917 212.789C46.2131 204.964 40.5943 200.347 32.349 198.925C30.115 198.533 27.854 198.682 25.6065 198.776C20.8813 198.966 16.1562 199.196 11.431 199.372C10.1177 199.426 8.81797 199.183 7.68069 198.438C5.8529 197.233 5.44673 195.405 5.6092 193.401C5.75813 191.601 6.73294 190.301 8.43888 189.705C11.6477 188.568 14.7617 187.255 17.7538 185.643C19.717 184.587 21.6125 183.41 23.4809 182.218C26.3782 180.363 28.4362 177.831 29.8443 174.704C31.6314 170.737 32.9176 166.594 34.1497 162.437C35.6932 157.252 36.8846 151.945 38.6853 146.84C40.838 140.721 43.2751 134.709 46.2672 128.928C47.7836 126.017 49.0428 122.985 49.652 119.722C49.9634 118.07 50.0446 116.418 49.4625 114.78C49.0021 113.467 48.1762 112.478 46.9577 111.815C43.3157 109.838 39.3352 108.213 37.8053 107.618C28.9236 104.192 29.9932 89.8544 41.6368 92.4539C44.3447 92.7788 46.5922 93.4422 48.5147 93.8213C51.9401 94.4847 54.6209 93.2527 56.5976 90.4501C58.1952 88.1755 58.9399 85.5625 59.4679 82.8682C60.4562 78.3055 60.6187 73.6887 60.6458 68.8282Z" fill="#B33027"/>
<path d="M129.046 46.8545C129.046 57.767 120.191 66.6351 109.279 66.608C98.3525 66.5945 89.6062 57.7535 89.5792 46.7732C89.5521 36.6189 97.6485 27.128 109.346 27.1009C120.299 27.0874 129.046 35.9419 129.046 46.8545Z" fill="white"/>
<path d="M111.187 61.2328C103.172 61.1922 96.7274 54.7069 96.8358 46.6918C96.9441 38.5141 103.714 32.1643 111.864 32.4892C119.094 32.7871 125.782 38.7714 125.593 47.2198C125.417 54.9912 119.108 61.2192 111.187 61.2328Z" fill="#19191A"/>
<path d="M114.911 40.0444C114.938 38.4197 116.197 37.1199 117.741 37.1335C119.365 37.147 120.733 38.6228 120.706 40.3422C120.692 41.9669 119.446 43.2802 117.903 43.2937C116.265 43.3073 114.884 41.818 114.911 40.0444Z" fill="white"/>
<path d="M114.112 38.1351C114.112 39.8004 112.867 41.1273 111.296 41.1273C109.671 41.1273 108.304 39.665 108.318 37.932C108.331 36.2938 109.55 35.0076 111.107 34.9805C112.718 34.9399 114.112 36.4021 114.112 38.1351Z" fill="white"/>
<path d="M115.75 45.3242C115.75 47.0301 114.532 48.3163 112.934 48.3028C111.323 48.2892 109.969 46.8541 109.942 45.1617C109.915 43.5099 111.201 42.1966 112.799 42.2102C114.478 42.2237 115.75 43.5641 115.75 45.3242Z" fill="white"/>
<path d="M98.9211 83.1259C95.0624 80.6889 92.0974 76.045 87.6024 75.7471C84.1905 75.5305 80.8734 78.2654 79.7768 81.772C78.6801 85.2922 79.6684 89.2998 81.9024 92.0482C84.5967 95.3653 88.7532 96.841 92.8149 97.5857C97.1881 98.3845 101.791 98.4928 106.043 96.9629C110.294 95.433 114.153 92.1159 115.777 87.6074C116.224 86.3618 116.495 84.9808 116.211 83.6946C115.777 81.772 114.18 80.4046 112.46 79.7141C106.706 77.426 99.9094 81.4471 94.1418 79.1861" fill="black"/>
<path d="M99.5982 81.9611C99.1649 81.6768 98.7317 81.3789 98.3255 81.0675C98.4203 81.1352 98.5151 81.2029 98.5963 81.2842C96.2676 79.4834 94.2908 77.1818 91.7049 75.6925C90.351 74.9207 88.8346 74.4063 87.2776 74.3927C85.6935 74.3656 84.0823 74.8937 82.7555 75.7466C81.361 76.6402 80.1966 77.8858 79.3707 79.3074C78.5042 80.8238 78.0574 82.5433 77.9627 84.2898C77.8002 87.7288 79.1406 91.1948 81.4964 93.686C83.7709 96.096 86.8849 97.5447 90.0531 98.3976C91.7726 98.858 93.5462 99.1558 95.3063 99.3454C97.1205 99.5485 98.9619 99.6026 100.79 99.4537C104.269 99.1558 107.695 98.1539 110.592 96.1772C113.205 94.3901 115.412 91.9395 116.671 89.0015C117.456 87.1466 118.025 85.048 117.416 83.0442C116.901 81.3519 115.669 79.9708 114.166 79.0773C111.296 77.3713 107.816 77.5203 104.621 77.9264C103.755 78.0347 102.875 78.1701 102.008 78.2785C102.13 78.2649 102.252 78.2514 102.374 78.2243C100.438 78.4815 98.4744 78.6982 96.5248 78.4409C96.6467 78.4545 96.7685 78.468 96.8904 78.4951C96.078 78.3868 95.2792 78.1837 94.5075 77.8858C94.1961 77.764 93.7357 77.8587 93.465 78.0212C93.1806 78.1837 92.9099 78.5086 92.8422 78.8336C92.7609 79.1856 92.7745 79.5782 92.9776 79.8761C93.1806 80.1875 93.4379 80.3635 93.7899 80.4989C96.3894 81.5143 99.2597 81.3383 101.981 80.9863C102.848 80.878 103.728 80.7426 104.594 80.6343C104.472 80.6478 104.35 80.6613 104.229 80.6884C106.165 80.4312 108.128 80.2146 110.077 80.4718C109.956 80.4583 109.834 80.4447 109.712 80.4176C110.578 80.5395 111.431 80.7561 112.244 81.0946C112.135 81.054 112.027 80.9998 111.919 80.9592C112.487 81.2029 113.029 81.5143 113.516 81.8799C113.422 81.8122 113.327 81.7445 113.246 81.6632C113.652 81.9747 114.017 82.3402 114.342 82.7464C114.275 82.6516 114.207 82.5568 114.126 82.4756C114.396 82.8276 114.627 83.2067 114.803 83.6129C114.762 83.5046 114.708 83.3963 114.667 83.2879C114.816 83.667 114.924 84.0461 114.979 84.4523C114.965 84.3305 114.952 84.2086 114.924 84.0868C114.992 84.6148 114.979 85.1428 114.911 85.6708C114.924 85.549 114.938 85.4271 114.965 85.3053C114.843 86.2124 114.559 87.0789 114.207 87.9183C114.248 87.81 114.302 87.7017 114.342 87.5934C113.855 88.7442 113.219 89.8274 112.46 90.8157C112.528 90.7209 112.596 90.6262 112.677 90.5449C111.838 91.6281 110.863 92.5893 109.793 93.4288C109.888 93.3611 109.983 93.2934 110.064 93.2122C108.886 94.1193 107.586 94.8775 106.219 95.4597C106.327 95.419 106.435 95.3649 106.544 95.3243C104.96 95.9877 103.294 96.4074 101.602 96.6376C101.724 96.624 101.846 96.6105 101.968 96.5834C99.5305 96.9083 97.0664 96.8271 94.6293 96.5022C94.7512 96.5157 94.873 96.5292 94.9949 96.5563C92.5714 96.2314 90.1343 95.6898 87.8733 94.7421C87.9816 94.7827 88.0899 94.8369 88.1982 94.8775C86.9526 94.3494 85.7612 93.686 84.6781 92.8601C84.7728 92.9278 84.8676 92.9955 84.9489 93.0768C84.123 92.4404 83.3648 91.6958 82.7284 90.8699C82.7961 90.9647 82.8638 91.0594 82.9451 91.1407C82.3493 90.3554 81.8484 89.5024 81.4693 88.5953C81.5099 88.7036 81.5641 88.8119 81.6047 88.9202C81.1985 87.959 80.9277 86.9571 80.7923 85.9281C80.8059 86.0499 80.8194 86.1718 80.8465 86.2936C80.7246 85.3324 80.7111 84.3711 80.833 83.4098C80.8194 83.5316 80.8059 83.6535 80.7788 83.7754C80.8871 82.9359 81.1037 82.0965 81.4422 81.3112C81.4016 81.4195 81.3474 81.5279 81.3068 81.6362C81.6182 80.9186 82.0109 80.2416 82.4847 79.6324C82.417 79.7271 82.3493 79.8219 82.2681 79.9032C82.742 79.2939 83.27 78.7523 83.8793 78.2785C83.7845 78.3462 83.6897 78.4138 83.6085 78.4951C84.15 78.0754 84.7458 77.7098 85.3821 77.439C85.2738 77.4796 85.1655 77.5338 85.0572 77.5744C85.6123 77.3443 86.208 77.1682 86.8037 77.087C86.6819 77.1006 86.56 77.1141 86.4382 77.1412C86.9933 77.0735 87.5484 77.0735 88.1035 77.1412C87.9816 77.1276 87.8598 77.1141 87.7379 77.087C88.4013 77.1818 89.0512 77.3578 89.674 77.6286C89.5657 77.588 89.4574 77.5338 89.3491 77.4932C90.3239 77.9129 91.2039 78.4815 92.0434 79.1314C91.9486 79.0637 91.8538 78.996 91.7726 78.9148C93.465 80.2281 94.9407 81.7716 96.6331 83.0849C97.1747 83.5046 97.7162 83.9243 98.2984 84.2898C98.8942 84.6689 99.8284 84.4388 100.153 83.8024C100.438 83.139 100.248 82.3673 99.5982 81.9611Z" fill="black"/>
<path d="M166.007 121.252L205 52.6628" stroke="black" stroke-width="5" stroke-miterlimit="10" stroke-linecap="round"/>
<path d="M82.7422 27.9267H132.986C132.986 27.9267 140.595 69.722 111.594 69.8032C82.5933 69.8844 83.5545 53.5698 82.7422 27.9267Z" stroke="black" stroke-width="5" stroke-miterlimit="10" stroke-linecap="round"/>
<path d="M69 28.8007C69.7582 28.5841 83 28 83 28" stroke="black" stroke-width="5" stroke-miterlimit="10" stroke-linecap="round"/>
</svg>
